<svg width="24" height="24" viewBox="0 0 24 24" fill="none" xmlns="http://www.w3.org/2000/svg">
<g id="_Glyphs / Small / Attention">
<path id="Mask" fill-rule="evenodd" clip-rule="evenodd" d="M12 21C7.02944 21 3 16.9706 3 12C3 7.02944 7.02944 3 12 3C16.9706 3 21 7.02944 21 12C21 16.9706 16.9706 21 12 21ZM12 19C15.866 19 19 15.866 19 12C19 8.13401 15.866 5 12 5C8.13401 5 5 8.13401 5 12C5 15.866 8.13401 19 12 19ZM10.8013 7.13574H12.9888L12.8042 13.7529H10.979L10.8013 7.13574ZM11.895 17.2051C11.1294 17.2051 10.6509 16.7607 10.6509 16.043C10.6509 15.3184 11.1294 14.874 11.895 14.874C12.6675 14.874 13.1392 15.3184 13.1392 16.043C13.1392 16.7607 12.6675 17.2051 11.895 17.2051Z" fill="#FC6767"/>
</g>
</svg>
